<?xml version="1.0" standalone="no"?>
<!DOCTYPE svg PUBLIC "-//W3C//DTD SVG 1.1//EN" "http://www.w3.org/Graphics/SVG/1.1/DTD/svg11.dtd" >
<!--
2013-9-30: Created.
-->
<svg>
<metadata>
Created by iconfont
</metadata>
<defs>

<font id="iconfont" horiz-adv-x="1024" >
  <font-face
    font-family="iconfont"
    font-weight="500"
    font-stretch="normal"
    units-per-em="1024"
    ascent="896"
    descent="-128"
  />
    <missing-glyph />
    
    <glyph glyph-name="x" unicode="x" horiz-adv-x="1001"
d="M281 543q-27 -1 -53 -1h-83q-18 0 -36.5 -6t-32.5 -18.5t-23 -32t-9 -45.5v-76h912v41q0 16 -0.5 30t-0.5 18q0 13 -5 29t-17 29.5t-31.5 22.5t-49.5 9h-133v-97h-438v97zM955 310v-52q0 -23 0.5 -52t0.5 -58t-10.5 -47.5t-26 -30t-33 -16t-31.5 -4.5q-14 -1 -29.5 -0.5
t-29.5 0.5h-32l-45 128h-439l-44 -128h-29h-34q-20 0 -45 1q-25 0 -41 9.5t-25.5 23t-13.5 29.5t-4 30v167h911zM163 247q-12 0 -21 -8.5t-9 -21.5t9 -21.5t21 -8.5q13 0 22 8.5t9 21.5t-9 21.5t-22 8.5zM316 123q-8 -26 -14 -48q-5 -19 -10.5 -37t-7.5 -25t-3 -15t1 -14.5
t9.5 -10.5t21.5 -4h37h67h81h80h64h36q23 0 34 12t2 38q-5 13 -9.5 30.5t-9.5 34.5q-5 19 -11 39h-368zM336 498v228q0 11 2.5 23t10 21.5t20.5 15.5t34 6h188q31 0 51.5 -14.5t20.5 -52.5v-227h-327z" />
    

    
    <glyph glyph-name="iconziti48" unicode="&#58939;" d="M771.851725 279.25656c-1.041726 115.476011 97.616248 171.109076 102.126982 173.886329-55.612599 78.261435-141.915174 89.141226-172.700317 90.337471-73.434499 7.080256-143.559627-41.891086-180.736341-41.891086-37.304627 0-94.721315 40.71633-155.849534 39.563064-80.103386-1.174756-153.964604-45.083801-195.284685-114.40768-83.10372-139.831722-21.153786-346.704326 59.996442-459.894272 39.680744-55.484685 86.916559-117.739565 149.105946-115.453499 59.852156 2.157129 82.335217 37.437657 154.611334 37.437657 72.228021 0.107447 92.608188-37.416168 155.726737-36.263925 64.332191 1.325182 105.176434 56.637951 144.632051 112.25055 45.350884 64.197114 64.123436 126.559441 65.089437 129.7409C897.257899 95.246663 773.282307 141.089757 771.851725 279.25656zM638.618281 602.936497c32.889061 38.613436 55.164391 92.25003 49.098231 145.726989-47.486524-1.857301-105.128339-30.700209-139.04173-69.163219-30.630624-34.180474-57.18235-88.821955-49.884131-141.252071C551.675116 534.275721 605.654518 564.282129 638.618281 602.936497z"  horiz-adv-x="1024" />

    
    <glyph glyph-name="fanhui" unicode="&#58941;" d="M732.88269-139.71365c12.247952 12.279674 12.247952 32.129768 0 44.375673L334.446142 303.098571l396.503523 396.503523c12.181437 12.214183 12.181437 31.998785 0 44.213991-12.214183 12.18246-31.998785 12.18246-44.215014 0L268.146133 325.193799c-6.134721-6.134721-9.148357-14.193257-9.104355-22.245653-0.046049-8.087189 2.983961-16.181541 9.153474-22.351054l420.312788-420.311765C700.752922-151.961602 720.603015-151.961602 732.88269-139.71365z"  horiz-adv-x="1024" />

    
    <glyph glyph-name="caogao" unicode="&#58904;" d="M906.747785-151.587613 117.212074-151.587613l-56.398275 0 0 56.458487L60.813799 695.149196 60.813799 751.587613l56.398275 0 789.515641 0 56.418346 0 0-56.458487 0-790.278322 0-56.458487L906.747785-151.607683zM906.747785 695.149196 117.212074 695.149196l0-790.278322 789.515641 0L906.727715 695.149196zM737.593101 469.35539 286.406899 469.35539 286.406899 525.793806l451.186201 0L737.593101 469.35539zM737.593101 271.780792 286.406899 271.780792l0 56.458487 451.186201 0L737.593101 271.780792zM737.593101 74.206194 286.406899 74.206194l0 56.458487 451.186201 0L737.593101 74.206194z"  horiz-adv-x="1024" />

    
    <glyph glyph-name="caogao1" unicode="&#58914;" d="M893.326357-82.118907 127.41953-82.118907 127.41953 683.78792l765.906827 0L893.326357-82.118907zM944.745447 735.20701 76.001463 735.20701l0-868.743984 868.745007 0L944.74647 735.20701zM282.570145 504.846458l458.930317 0 0-53.208852-458.930317 0 0 53.208852ZM282.570145 326.608008l458.930317 0 0-53.207829-458.930317 0 0 53.207829ZM282.570145 148.369557l458.930317 0 0-53.207829-458.930317 0 0 53.207829Z"  horiz-adv-x="1024" />

    
    <glyph glyph-name="san1" unicode="&#59105;" d="M511.798905 895.385968C229.204173 895.385968 0.101827 666.284645 0.101827 383.689914c0-282.589614 229.101323-511.689914 511.696054-511.689914 282.589614 0 511.689914 229.1003 511.689914 511.689914C1023.487795 666.284645 794.387496 895.385968 511.798905 895.385968L511.798905 895.385968zM767.13268 267.880488c-19.445357 0-37.320839 7.096158-50.897078 18.997114-27.532153-24.048547-75.559656-23.638169-102.784793 0.990638-20.228247-17.497853-50.760967-21.662011-76.306728-13.301971l0.067543-155.590486c0-56.25041-45.782195-102.033628-102.0674-102.033628-56.284181 0-102.033628 45.784241-102.033628 102.033628l51.170322 0c0-28.039752 22.823554-50.863306 50.863306-50.863306 28.040776 0 50.863306 22.823554 50.863306 50.863306l-0.033772 155.624257c-25.721783-8.427583-56.461227-4.162111-76.618861 13.405333-27.390925-23.945185-74.570042-23.638169-101.828951 0.443126-13.678577-12.078001-31.656398-19.378837-51.096638-19.378837-41.929147 0-76.48275 34.081823-77.097805 75.971057 0.545465 177.32004 135.904633 321.858981 306.60746 335.229518l0 44.547991 51.170322 0 0-44.547991c167.698165-13.16586 303.022538-155.009202 306.604389-327.792572 0.238449-0.409354 0.477921-3.923662 0.477921-7.505513C844.225369 302.46991 809.637993 267.880488 767.13268 267.880488L767.13268 267.880488zM767.13268 267.880488M511.798905 630.398593c-154.599848 0-280.784361-127.448395-281.297078-284.091945 0.204677-14.635443 11.837505-26.098389 25.927484-26.098389 13.063522 0 24.115067 9.754915 25.686988 22.68642 1.566804 12.825073 12.482239 22.447971 25.40965 22.447971 12.932528 0 23.813168-9.622898 25.414767-22.447971 1.571921-12.931505 12.657238-22.68642 25.721783-22.68642 12.589694 0 23.335247 8.975095 25.516082 21.319176 2.152181 12.215135 12.796418 21.116546 25.176318 21.116546 12.385017 0 23.027208-8.901411 25.175295-21.116546 2.180835-12.345105 12.932528-21.319176 25.517106-21.319176 14.087931 0 25.721783 11.462946 25.927484 25.517106 0.204677 13.985593 11.565285 25.21009 25.584649 25.21009l0 0c13.985593 0 25.3462-11.190726 25.585673-25.176318l0-0.78596 0.067543 0c0-0.13611 0-0.238449-0.033772-0.340788 0.814615-13.541443 12.208995-24.42413 25.922367-24.42413 12.932528 0 23.950302 9.617781 25.686988 22.413176 1.742826 12.791301 13.405333 22.721215 25.654239 22.140955 12.926388-0.170905 23.705713-9.929914 25.141523-22.754987 1.433764-13.097294 12.487356-22.993436 25.755555-22.993436 12.654167 0 23.671941 9.418221 25.619444 21.90046 1.941363 12.487356 12.654167 21.695783 25.277633 21.695783 12.620396 0 23.364925-9.208427 25.277633-21.695783 1.942387-12.448467 12.961183-21.90046 25.619444-21.90046 14.327404 0 25.922367 11.633852 25.922367 25.92646 0 1.161543-0.067543 2.288291-0.204677 3.445741C789.404629 505.238489 663.391021 630.398593 511.798905 630.398593L511.798905 630.398593zM511.798905 630.398593"  horiz-adv-x="1024" />

    
    <glyph glyph-name="anzhuo" unicode="&#59062;" d="M144.245 563.599c-34.508 0-62.492-27.984-62.492-62.492v0-262.536c0-34.508 27.984-62.492 62.492-62.492 34.508 0 62.492 27.984 62.492 62.492v0 106.274l0 49.987v106.274c0 34.508-27.952 62.492-62.492 62.492zM942.247 501.107c0 34.508-27.984 62.492-62.492 62.492-34.508 0-62.492-27.984-62.492-62.492v0-262.536c0-34.508 27.984-62.492 62.492-62.492 34.508 0 62.492 27.984 62.492 62.492v0 262.536zM232.258 552.661h-3.102v-412.049c0-34.38 28.144-62.524 62.492-62.524h52.673v-143.597c0-34.508 27.984-62.492 62.492-62.492s62.492 27.984 62.492 62.492v0l0 106.306v37.322h85.295v-143.597c0.032-34.508 27.984-62.492 62.524-62.492 34.508 0 62.492 27.984 62.492 62.492l0 106.274v37.322h52.673c34.38 0 62.492 28.144 62.492 62.524v412.017h-562.522zM794.332 574.537v30.127c-0.832 8.539-2.111 16.982-3.87 25.265-15.479 73.302-66.617 135.378-136.753 171.453l43.143 79.602c2.686 4.925 0.832 11.098-4.094 13.784-4.925 2.686-11.098 0.832-13.784-4.094l-43.687-80.625c-37.13 15.959-78.77 24.914-122.777 24.914-44.326 0-86.286-9.083-123.608-25.265l-43.879 80.977c-2.686 4.925-8.827 6.78-13.784 4.094-4.925-2.686-6.748-8.827-4.094-13.784l43.367-80.018c-66.841-34.636-116.317-92.97-133.874-162.082-4.541-17.942-6.972-36.619-6.972-55.776 0-2.878 0.064-5.725 0.192-8.571h564.473zM640.661 727.696c14.679 0 26.577-11.897 26.577-26.577 0-14.679-11.897-26.577-26.577-26.577-14.679 0-26.577 11.897-26.577 26.577-0 14.679 11.897 26.577 26.577 26.577zM383.339 727.696c14.679 0 26.577-11.897 26.577-26.577 0-14.679-11.897-26.577-26.577-26.577-14.679 0-26.577 11.897-26.577 26.577 0 14.679 11.897 26.577 26.577 26.577z"  horiz-adv-x="1024" />

    
    <glyph glyph-name="leimu" unicode="&#58955;" d="M608.839559 417.762965l199.915146 0c41.400922 0 74.968435 33.556257 74.968435 74.944899L883.72314 692.62301c0 41.413202-33.56649 74.992995-74.968435 74.992995L608.839559 767.616004c-41.400922 0-74.968435-33.579793-74.968435-74.992995l0-199.916169C533.871123 451.317175 567.437613 417.762965 608.839559 417.762965zM583.850421 664.07072c0 29.576619 23.978111 53.565986 53.541427 53.565986l142.79931 0c29.577642 0 53.553707-23.988344 53.553707-53.565986l0-142.786007c0-29.577642-23.976064-53.56701-53.553707-53.56701L637.391848 467.717703c-29.564339 0-53.541427 23.988344-53.541427 53.56701L583.850421 664.07072zM408.92032 367.757061 209.004151 367.757061c-41.400922 0-74.968435-33.555234-74.968435-74.968435L134.035716 92.895993c0-41.413202 33.56649-74.968435 74.968435-74.968435l199.916169 0c41.400922 0 74.968435 33.556257 74.968435 74.968435L483.888755 292.787602C483.889779 334.200804 450.322266 367.757061 408.92032 367.757061zM433.910481 121.449305c0-29.577642-23.978111-53.54245-53.553707-53.54245L237.569744 67.906855c-29.576619 0-53.553707 23.964808-53.553707 53.54245L184.016037 264.235312c0 29.577642 23.978111 53.54245 53.553707 53.54245L380.356774 317.777763c29.576619 0 53.553707-23.964808 53.553707-53.54245L433.910481 121.449305zM926.30905 12.045593l-10.752902 10.751878c-0.273223 0.302899-0.529049 0.617054-0.820692 0.908696l-65.22349 65.22349c21.49557 29.057803 34.212196 65.004503 34.212196 103.925954 0 96.588849-78.311577 174.901449-174.927031 174.901449-96.614431 0-174.926008-78.3126-174.926008-174.901449 0-96.614431 78.311577-174.927031 174.926008-174.927031 38.937824 0 74.897827 12.725836 103.960747 34.237779l29.7997-29.7997 47.02399-47.02399c10.152221-10.151197 26.586518-10.151197 36.727483 0C936.448992-14.529669 936.448992 1.917932 926.30905 12.045593zM583.849398 192.855612c0 68.989257 55.933917 124.923174 124.947733 124.923174 69.00256 0 124.948757-55.933917 124.948757-124.923174 0-69.01484-55.946196-124.948757-124.948757-124.948757C639.783315 67.906855 583.849398 123.840772 583.849398 192.855612zM408.92032 767.616004 209.004151 767.616004c-41.400922 0-74.968435-33.579793-74.968435-74.992995l0-199.916169c0-41.389666 33.56649-74.944899 74.968435-74.944899l199.916169 0c41.400922 0 74.968435 33.556257 74.968435 74.944899L483.888755 692.62301C483.889779 734.036211 450.322266 767.616004 408.92032 767.616004zM433.910481 521.284713c0-29.577642-23.978111-53.56701-53.553707-53.56701L237.569744 467.717703c-29.576619 0-53.553707 23.988344-53.553707 53.56701L184.016037 664.07072c0 29.576619 23.978111 53.565986 53.553707 53.565986L380.356774 717.636706c29.576619 0 53.553707-23.988344 53.553707-53.565986L433.910481 521.284713z"  horiz-adv-x="1024" />

    
    <glyph glyph-name="icon4" unicode="&#58906;" d="M686.184111 717.827041c-73.571622 0-137.337925-38.749536-174.123736-96.429213-36.886095 57.679677-100.647281 96.429213-174.122713 96.429213-114.675786 0-207.668737-92.897783-207.668737-207.573569 0-29.623691 4.611018-57.679677 15.790638-83.184561 77.006861-174.911682 208.065779-323.133491 366.000811-427.51277 157.839865 104.379279 288.899806 252.601088 365.976252 427.51277 11.18576 25.504884 15.69547 53.56087 15.69547 83.184561C893.732098 624.929258 800.858874 717.827041 686.184111 717.827041z"  horiz-adv-x="1024" />

    
    <glyph glyph-name="sousuo" unicode="&#58891;" d="M950.191153 36.719192 780.688123 206.351515c46.545455 65.034343 74.214141 144.420202 74.214141 230.4C854.902264 655.773737 676.736608 833.939394 457.714385 833.939394S60.526507 655.773737 60.526507 436.751515 238.692163 39.563636 457.714385 39.563636c85.333333 0 164.331313 27.280808 229.236364 73.309091L856.712365-56.888889c12.8-12.8 39.951515-15.515152 52.880808-2.715152l46.80404 46.80404C969.197214 0.129293 963.120446 23.789899 950.191153 36.719192L950.191153 36.719192zM126.595194 436.751515c0 182.561616 148.428283 330.989899 330.989899 330.989899 182.561616 0 330.989899-148.428283 330.989899-330.989899 0-182.561616-148.428283-330.989899-330.989899-330.989899C275.152769 105.761616 126.595194 254.189899 126.595194 436.751515L126.595194 436.751515zM126.595194 436.751515"  horiz-adv-x="1024" />

    
    <glyph glyph-name="nvbao" unicode="&#58957;" d="M503.88107 511.365709q29.43112 1.014866 48.206145 8.11893t32.983152 12.178394q13.193261 5.074331 30.953419 22.327056t28.923687 39.579782q5.074331 11.163528 12.685828 14.71556t15.730426 2.537166 16.745292-5.074331 15.730426-7.104063 21.819623-11.163528 31.968285-17.252725 35.520317-18.267592 31.460852-15.222993q23.341923-10.148662 33.490585-22.83449t16.237859-21.819623q3.044599-5.074331 12.685828-21.819623t21.31219-39.579782 23.341923-49.728444 17.760159-52.26561q6.089197-26.386521 10.656095-51.250743t1.014866-48.713578-18.267592-46.176412-46.176412-42.624381q-32.475719-20.297324-79.666997-37.042616t-101.48662-29.43112-109.60555-19.789891-104.023786-7.104063-103.516353 7.104063-107.068385 18.775025-97.427156 27.401388-73.5778 31.968285-45.161546 32.475719-24.356789 33.998018-8.626363 38.564916 1.014866 47.191278q2.029732 25.371655 12.685828 56.832507t24.356789 60.891972 26.386521 52.773043 19.789891 33.490585q6.089197 9.133796 16.745292 23.849356t30.953419 22.83449q10.148662 4.059465 28.923687 13.700694t40.087215 20.297324 41.102081 21.31219 32.983152 16.745292q10.148662 5.074331 17.760159 4.566898t12.685828-3.552032 8.11893-7.104063 5.074331-7.104063q3.044599-5.074331 10.148662-17.760159t35.520317-35.012884q14.208127-11.163528 30.445986-16.745292t30.445986-8.626363q17.252725-4.059465 34.505451-4.059465zM504.895937 896l8.11893 0q6.089197 0 15.730426-3.044599t23.849356-10.656095 32.475719-23.849356q19.282458-17.252725 36.535183-39.072349t30.445986-41.609514 20.804757-33.998018 8.626363-17.252725l3.044599-10.148662q3.044599-8.11893 3.044599-16.237859t-4.059465-16.237859-15.222993-12.178394q-12.178394-4.059465-21.31219-2.029732t-14.71556 7.104063-8.11893 11.670961-1.522299 11.670961q2.029732 14.208127 0.507433 24.864222t-11.670961 30.953419q-11.163528 24.356789-27.401388 46.683845t-27.401388 34.505451q-10.148662 11.163528-24.864222 17.252725t-27.908821 6.089197q-18.267592-1.014866-32.475719-9.641229t-24.356789-17.760159q-5.074331-5.074331-11.670961-14.71556t-13.700694-20.804757-13.700694-21.819623-9.641229-16.745292q-7.104063-13.193261-10.656095-22.327056t-1.522299-31.460852-9.133796-29.938553-25.371655-5.581764q-14.208127 1.014866-25.371655 13.193261t-3.044599 34.505451q4.059465 11.163528 13.700694 27.401388t21.819623 34.505451 26.386521 36.02775 27.401388 31.968285q26.386521 28.416254 48.713578 38.564916t43.639247 10.148662z"  horiz-adv-x="1024" />

    
    <glyph glyph-name="tuihuo" unicode="&#59239;" d="M488.206 463.753h158.363v-49.943h-158.363v49.943zM511.713 824.924c-251.12 0-454.69-203.568-454.69-454.688 0-251.12 203.57-454.692 454.69-454.692 251.118 0 454.69 203.572 454.69 454.692-0.001 251.12-203.573 454.688-454.69 454.688zM696.179 383.763l20.030-26.27-4.798-2.971c-25.72-15.921-51.152-31.112-75.714-45.227 12.406-7.845 29.196-18.492 50.068-31.751 11.621-7.358 20.782-13.113 27.223-17.099l4.835-2.992-22.676-29.289-3.988 2.749c-61.569 42.439-118.225 79.704-168.392 110.761l-5.038 3.119 21.080 25.033 3.755-2.303c9.316-5.714 22.77-13.978 40.354-24.798 9.78-6.178 17.499-10.998 23.040-14.387 35.394 21.116 64.4 38.901 86.247 52.883l3.973 2.542zM443.696 242.418c7.254 7.925 10.649 17.447 10.379 29.108l-0.001 0.119v304.23h226.177v-193.493h-192.045v-117.638c31.281 13.362 58.477 25.205 80.923 35.242l6.695 2.994 0.503-7.318c0.581-8.458 1.69-16.808 3.293-24.816l0.863-4.309-4.128-1.506c-29.766-10.866-59.045-23.089-87.022-36.334-6.14-2.926-14.023-7.316-23.419-13.043l-3.771-2.299-21.468 25.762 3.021 3.299zM343.44 586.299l2.809-3.608c17.416-22.376 36.585-48.695 56.974-78.226l3.050-4.419-30.908-19.239-2.737 4.206c-20.282 31.165-38.717 57.761-54.793 79.049l-3.405 4.509 29.010 17.729zM733.441 190.641c-3.445-7.605-6.136-15.829-7.999-24.441l-0.876-4.049-4.143 0.012c-103.497 0.301-182.318 1.439-234.277 3.381-55.434 0.020-97.686 17.741-125.699 52.688-16.58-19.278-31.992-38.766-45.866-58.001l-3.306-4.585-27.375 24.192 3.235 3.825c20.043 23.7 39.496 45.631 57.846 65.214l0 153.341h-54.998v33.456h89.356v-190.892c24.464-30.828 61.782-46.458 110.949-46.459l0.752 0.001 0.077-0.002c27.463-0.745 67.083-1.2 117.762-1.351 8.807-0.025 17.256-0.037 25.336-0.037 40.621 0 72.389 0.315 94.42 0.937l8.188 0.231-3.381-7.462zM488.206 544.447h158.363v-49.717h-158.363v49.717z"  horiz-adv-x="1024" />

    
    <glyph glyph-name="mulu" unicode="&#59026;" d="M0.020978 664.557814h204.710358V818.090583H0.020978v-153.532769zM358.263082 818.090583v-153.532769h665.308664V818.090583H358.263082zM0.020978 306.314687h204.710358V459.847455H0.020978v-153.532768z m358.242104 0h665.308664V459.847455H358.263082v-153.532768zM0.020978-51.928441h204.710358V101.604328H0.020978v-153.532769z m358.242104 0h665.308664V101.604328H358.263082v-153.532769z"  horiz-adv-x="1024" />

    
    <glyph glyph-name="m" unicode="&#59015;" d="M799.54 451q42.22-61 42.2-166.94V64H738.31V284q0 43.46-5.57 71.77t-23.4 45.94q-17.79 17.59-52.51 17.56-46.4 0-69.76-27.69t-23.36-82.35V64H460.29V284q0 43.46-5.61 71.77t-23.36 45.94q-17.79 17.59-52.56 17.56-46.33 0-69.71-27.69t-23.36-82.35V64H182.26V507.44h103.43v-44.52a105.52 105.52 0 0 0 39.51 36.26Q349.42 512 388.7 512q98.89 0 142.76-78.61 8.28 18.61 28.33 36.82t48 30A149.48 149.48 0 0 0 666.73 512q90.61 0 132.81-61z"  horiz-adv-x="1024" />

    
    <glyph glyph-name="icon-test" unicode="&#59183;" d="M510.403642 724.364945c-140.490731 0-254.358105-111.477954-254.358105-249.02668 0-137.53133 113.867374-249.02361 254.358105-249.02361 140.495848 0 254.361175 111.491257 254.361175 249.02361 0.002047 137.547703-113.865327 249.02668-254.361175 249.02668M216.694297 379.749186V609.654366c-3.218298 0-6.412037-0.132006-9.565866-0.382716C259.252579 722.425779 375.34462 801.23059 510.443551 801.23059c135.094838 0 251.190973-78.805834 303.311027-191.95894a120.621195 120.621195 0 0 1-9.565866 0.382716V379.749186c64.878636 0 117.508297 51.472302 117.508297 114.947985 0 43.110867-24.276916 80.675414-60.173474 100.350523C811.010071 737.334327 673.104211 839.531917 510.444575 839.531917c-162.661683 0-300.558333-102.189404-351.076914-244.469897-35.907815-19.673062-60.175521-57.243749-60.175521-100.360755-0.001023-63.479777 52.588729-114.952078 117.502157-114.952079m547.534308-131.796722c-66.464761-60.730153-155.700131-97.916077-253.824963-97.916077-97.942683 0-187.024557 37.048801-253.451456 97.577363C138.068566 187.723731 60.018955 81.125925 60.018955-63.683159h903.861806c-0.001023 145.079236-79.509868 251.80598-199.652156 311.635623m0 0"  horiz-adv-x="1024" />

    
    <glyph glyph-name="xinpin" unicode="&#58901;" d="M987.04 362.792c-15.951 18.618-12.415 26.62 0.947 42.956 69.21 84.716 31.696 201.788-74.55 229.604-26.705 6.985-38.047 14.813-28.855 37.193C887.36 779.94 783.764 852.205 682.875 814.66c-23.697-8.815-32.08-6.967-46.299 13.836-61.223 89.51-188.549 89.59-249.31-0.046-14.453-21.302-23.543-22.162-46.413-13.935-103.4 37.228-208.124-36.36-201.084-142.258 1.774-26.523-6.729-30.735-29.426-36.824C4.276 606.93-34.412 488.055 35.925 405.64c15.47-18.123 13.656-25.996-0.449-43.293-70.264-86.13-30.09-202.613 79.444-230.943 20.223-5.23 26.623-9.243 25.28-31.722-6.748-112.214 95.964-184.444 205.302-144.714 20.503 7.474 27.514 5.58 39.599-12.37 63.32-94.021 190.484-93.64 253.87 0.987 12.649 18.874 19.977 18.476 39.684 11.11 108.264-40.473 214.39 35.934 204.702 147.362-1.786 20.577 3.608 23.863 22.703 28.612 112.563 27.945 154.277 146.564 80.98 232.123zM214.635 177.794l-58.778 168.943c-5.088 14.651 0.203 24.952 15.841 30.861 8.91 1.167 16.832-0.137 23.728-3.87l145.283-92.081 1.251 0.417-39.036 112.224c-5.094 14.652 0.198 24.953 15.842 30.879 15.358 4.114 25.992-1.052 31.941-15.43l58.743-168.945c4.003-14.153-1.552-23.656-16.633-28.532-8.383-2.727-16.022-2.202-22.93 1.595l-144.888 90.879-1.251-0.4L262.37 193.26c3.984-14.16-1.557-23.657-16.634-28.557-15.906-5.165-26.288-0.798-31.1 13.09zM436.72 250.9l-56.748 163.14c-5.638 16.216-0.63 27.26 15.033 33.188l80.433 26.002c13.675 3.588 23.494-0.56 29.48-12.35 3.127-14.432-2-23.82-15.393-28.157l-56.562-18.286 14.895-42.813 52.794 17.054c14.799 3.062 25.146-1.305 31.133-13.102 2.858-13.662-2.662-23.165-16.634-28.533l-52.794-17.077 15.694-45.113 59.09 19.083c14.518 3.824 24.338-0.319 29.479-12.34 3.127-14.426-2.002-23.814-15.393-28.152l-82.95-26.829c-15.391-4.132-25.906 0.652-31.557 14.285z m178.89 56.54l-97.827 148.59c-2.763 2.52-4.381 5.848-4.878 10.025-3.194 11.831 2.068 20.803 15.788 26.955 13.392 4.321 24.753-0.156 34.047-13.449l69.852-116.436 1.276 0.415-3.609 143.006c0.431 12.131 6.813 20.647 19.114 25.476 12.001 3.027 22.386-0.063 31.169-9.214l86.55-116.21 1.277 0.409-15.823 133.895c-3.146 14.442 2.696 24.483 17.507 30.127 13.92 2.773 23.745-1.322 29.461-12.34 1.361-3.887 2.115-7.504 2.367-10.838l16.135-175.004c-1.042-15.783-9.107-26.13-24.188-30.97-16.785-5.437-29.93-2.41-39.535 9.081l-77.538 102.363 2.133-126.764c-1.306-15.004-9.49-24.935-24.59-29.811-17.62-5.66-30.532-2.118-38.688 10.694z m0 0"  horiz-adv-x="1024" />

    
    <glyph glyph-name="yonghu" unicode="&#58880;" d="M606.574-56.448h-179.68c-169.152 0-302.784 0-302.784 85.952v17.696c0 164.416 135.808 298.144 302.784 298.144h179.68c166.976 0 302.816-133.76 302.816-298.144v-17.696c0-85.952-140.32-85.952-302.816-85.952zM507.758 368.096c-132.224 0-239.808 106.016-239.808 236.288s107.584 236.288 239.808 236.288c132.224 0 239.808-105.984 239.808-236.288s-107.584-236.288-239.808-236.288z"  horiz-adv-x="1024" />

    
    <glyph glyph-name="sanjiaoxing" unicode="&#58881;" d="M718.431 488.84l-205.585-205.585-205.578 205.578 411.16 0.004z"  horiz-adv-x="1024" />

    
    <glyph glyph-name="biaoqian" unicode="&#58943;" d="M96.8192 896C43.73504 896 0.46592 852.73088 0.46592 799.77984v-288.53248c0-52.82304 30.61248-126.82752 68.19328-164.28544l447.90272-446.8736c37.4528-37.44768 98.80064-37.44768 136.25856 0l345.61536 344.84224c37.4528 37.45792 37.4528 98.67776 0 136.13056l-447.77472 446.8736C513.20832 865.38752 439.07584 896 386.1248 896H96.8192z m128.11776-320.04608c-53.08416 0-96.22016 43.008-96.22016 95.95904 0 52.95616 43.136 95.96416 96.22016 95.96416s96.22016-43.008 96.22016-95.96416c-0.128-52.94592-43.136-95.95904-96.22016-95.95904z"  horiz-adv-x="1027" />

    
    <glyph glyph-name="shunfengbaoyou" unicode="&#58883;" d="M285.7 456.5l-46.6-64.8c-4.1-6.1-8.6-13.3-8.6-18.9h117.7v88.9h-54.1c-3.5 0.1-8.4-5.2-8.4-5.2zM510.7 830.9C264.1 830.9 64.2 631 64.2 384.4S264.1-62 510.7-62s446.4 199.9 446.4 446.4S757.2 830.9 510.7 830.9zM315.1 177c-28.2 0-51.1 23-51.1 51.4s22.9 51.4 51.1 51.4c28.2 0 51.1-23 51.1-51.4S343.3 177 315.1 177z m99.5 84.7c0-12.2-9.9-22.1-22-22.2-5.4 38.3-38 67.9-77.5 67.9-39.6 0-72.1-29.6-77.5-67.9h-22c-12.2 0-22.1 10-22.1 22.2V372.9c0 21.1 16.9 44.9 16.9 44.9l49.4 66.2c10.1 12.2 16.9 22.2 33.2 22.2h99.5c12.2 0 22.1-10 22.1-22.2v-222.3zM624.7 177c-28.2 0-51.1 23-51.1 51.4s22.9 51.4 51.1 51.4c28.2 0 51.1-23 51.1-51.4S652.9 177 624.7 177z m143.7 84.7c0-12.2-9.9-22.2-22.1-22.2h-44.1c-5.4 38.3-37.9 67.9-77.5 67.9s-72.1-29.6-77.5-67.9h-88.3c-12.2 0-22.1 10-22.1 22.2V572.9c0 12.2 9.9 22.2 22.1 22.2h287.4c12.2 0 22.1-10 22.1-22.2v-311.2z"  horiz-adv-x="1024" />

    
    <glyph glyph-name="dianzanmw" unicode="&#58882;" d="M512 893.68c-281.501 0-509.706-228.203-509.706-509.705 0-281.503 228.204-509.653 509.706-509.653 281.501 0 509.704 228.15 509.704 509.653 0 281.502-228.203 509.705-509.704 509.705zM352.527 134.026c0 0 0.161-14.32-18.137-14.32h-87.717c0 0-21.638 0-21.638 21.639l-20.895 339.628c0 0 0.318 20.628 21.266 20.628h101.347c0 0 25.774 0.319 25.774-25.772v-341.803zM756.961 182.604c0 0-19.517-62.898-43.433-62.898h-254.403c-17.713 0-62.897 11.986-62.897 45.186v336.816c0 0 125.848 93.073 125.848 211.816 3.555 6.205-6.205 43.435 40.783 43.435 0 0 110.786-12.41 45.186-255.251h169.282c0 0 42.533 3.553 42.533-40.783-0.001 0-0.001-63.798-62.899-278.321z"  horiz-adv-x="1024" />

    
    <glyph glyph-name="biaoqian1" unicode="&#58932;" d="M817.219 299.679c0 18.882-6.293 35.061-19.774 49.449L411.761 733.91c-13.486 13.486-32.369 25.175-54.846 35.067-23.373 9.887-44.052 14.382-62.935 14.382H69.228c-18.883 0-35.062-7.194-48.548-20.68C7.194 749.194 0 733.015 0 714.132v-223.856c0-18.883 4.495-40.458 14.382-62.935 9.892-23.373 20.68-41.36 35.067-54.846l385.684-385.684c13.481-13.491 29.67-19.779 48.548-19.779s35.062 6.293 49.45 19.779l264.314 264.315c12.59 13.491 19.774 29.675 19.774 48.553zM221.159 561.3c-13.482-13.486-29.66-19.778-48.543-19.778s-35.062 6.292-48.548 19.778c-13.486 13.481-19.784 29.666-19.784 48.548 0 18.883 6.298 35.062 19.784 48.548 13.486 13.486 29.665 19.779 48.548 19.779 18.882 0 35.061-6.293 48.542-19.779 13.492-13.486 19.779-29.665 19.779-48.548 0.901-18.882-6.287-35.067-19.779-48.548z m783.062-212.172L618.537 733.91c-13.481 13.486-32.369 25.175-54.84 35.067-23.378 9.887-44.053 14.382-62.935 14.382h-121.37c18.883 0 40.458-4.495 62.935-14.382 23.373-9.892 41.354-20.68 54.835-35.067l385.685-384.783c13.49-14.393 19.778-30.572 19.778-49.45s-6.292-35.066-19.778-48.547L630.22-2.401c10.788-10.783 20.68-18.883 28.764-24.274 8.095-5.392 18.883-7.184 31.467-7.184 18.883 0 35.067 6.293 49.45 19.774l264.314 265.216c13.486 13.486 19.779 29.67 19.779 48.548s-6.287 35.061-19.774 49.449z"  horiz-adv-x="1024" />

    
    <glyph glyph-name="cha" unicode="&#59023;" d="M511.769 831.655c-247.258 0-447.701-200.443-447.701-447.701 0-247.26 200.443-447.703 447.701-447.703S959.47 136.694 959.47 383.954c0 247.258-200.443 447.701-447.701 447.701z m158.285-580.663a8.954 8.954 0 0 0 0-12.663l-12.663-12.665c-3.496-3.496-9.165-3.496-12.663 0l-132.96 132.962-132.96-132.962a8.956 8.956 0 0 0-12.663 0l-12.665 12.665a8.956 8.956 0 0 0 0 12.663l132.962 132.96-132.961 132.962a8.953 8.953 0 0 0 0 12.661l12.665 12.663a8.954 8.954 0 0 0 12.663 0l132.96-132.96 132.96 132.96a8.954 8.954 0 0 0 12.663 0l12.663-12.663a8.951 8.951 0 0 0 0-12.661l-132.96-132.962 132.959-132.96z"  horiz-adv-x="1024" />

    
    <glyph glyph-name="weibo" unicode="&#58987;" d="M832.9 462.3c13.4 0 24.5 9.7 26.5 22.4 0.2 1 0.3 1.8 0.3 2.8 20.1 178.4-148.2 147.6-148.2 147.6-14.9 0-26.9-11.8-26.9-26.9 0-14.7 12-26.5 26.9-26.5 120.8 26.4 94.3-92.9 94.3-92.9-0.1-14.7 12.1-26.5 27.1-26.5z m-19.6 311.3c-58.1 13.5-118.1 1.8-134.9-1.3-1.4-0.2-2.5-1.3-3.7-1.5-0.5-0.2-1-0.7-1-0.7-16.6-4.7-28.6-19.7-28.6-37.5 0-21.2 17.4-38.7 39.2-38.7 0 0 21.1 2.8 35.5 8.3 14.2 5.7 134.9 4.2 194.7-94.9 32.6-72.4 14.4-120.8 12-128.6 0 0-7.8-18.9-7.8-37.4 0-21.4 17.4-34.9 39.2-34.9 18.1 0 33.3 2.5 37.7 32.7h0.2c64.6 211.4-78.4 310.7-182.5 334.5zM403.9 46.2c-163.8-7.5-296.2 73.4-296.2 181.2 0 107.9 132.5 194.4 296.2 201.9 163.9 7.5 296.6-59.2 296.6-166.8 0-107.7-132.7-209-296.6-216.3z m348.8 350.2c-38.9 7.5-19.9 28-19.9 28s38 61.9-7.6 106.9c-56.4 55.7-193.8-7-193.8-7-52.4-16-38.5 7.3-31.1 47.1 0 46.9-16.2 126.1-156 79.4C204.6 603.6 84.8 438.6 84.8 438.6 1.5 329 12.5 244.2 12.5 244.2 33.3 57 234.9 5.6 391.7-6.6c164.9-12.7 387.7 56.1 455.1 197.5 67.6 141.8-55.1 197.8-94.1 205.5zM426.9 226.2c-10.5-7.7-23.3-6.7-28.7 2.7-5.7 9-3.5 23.4 6.9 30.9 12.2 9 24.8 6.3 30.4-2.7 5.4-9 1.5-22.9-8.6-30.9z m-97.2-81.6c-30.8-3.5-55.6 14-55.6 39.4 0 25.2 22 51.7 52.7 54.9 35.3 3.3 58.3-16.7 58.3-42.2 0.2-25.2-24.8-48.6-55.4-52.1z m41.5 213.8c-164.8-19-145.7-171.2-145.7-171.2s-1.7-48.2 44.1-72.7c96.3-51.6 195.7-20.3 245.7 43.5 50.3 63.7 20.9 219.2-144.1 200.4z"  horiz-adv-x="1024" />

    
    <glyph glyph-name="zhifubao" unicode="&#59051;" d="M283.486316 104.286316c-149.557895 0-173.271579 94.585263-165.456842 134.197895 8.084211 39.073684 51.2 90.543158 134.467368 90.543157 95.663158 0 181.355789-24.522105 284.025263-74.64421-72.218947-94.046316-160.875789-150.096842-253.035789-150.096842zM1024 194.829474V699.014737C1024 807.882105 935.882105 896 827.014737 896H196.985263C88.117895 896 0 807.882105 0 699.014737v-630.029474C0-39.882105 88.117895-128 196.985263-128h630.029474c97.010526 0 177.583158 70.063158 194.021052 162.223158-52.277895 22.366316-278.635789 120.185263-396.395789 176.505263-89.734737-108.597895-183.781053-173.810526-325.524211-173.810526-141.473684 0-236.058947 87.04-224.741052 194.021052 7.545263 70.063158 55.511579 184.589474 264.353684 164.917895 109.945263-10.24 160.336842-30.989474 250.071579-60.631579 23.174737 42.576842 42.576842 89.465263 57.128421 139.317895H248.185263v39.612631h196.71579v70.602106H204.8V628.143158h240.101053V730.273684s2.155789 16.168421 19.941052 16.168421h98.357895v-118.298947h256v-43.385263h-256v-70.602106h208.842105c-19.132632-78.147368-48.235789-150.096842-84.88421-212.88421 60.631579-21.827368 336.842105-106.442105 336.842105-106.442105z"  horiz-adv-x="1024" />

    
    <glyph glyph-name="shang" unicode="&#58886;" d="M535.552 714.24c-0.512 0.512-1.024 1.024-1.024 1.536-6.144 6.144-14.336 9.216-22.016 9.216-8.192 0-15.872-3.072-22.016-9.216-0.512-0.512-1.024-1.024-1.024-1.536L286.208 511.488c-12.288-12.288-12.288-32.256 0-44.032 12.288-12.288 32.256-12.288 44.032 0l150.016 150.016v-542.72c0-17.408 14.336-31.232 31.232-31.232 17.408 0 31.232 14.336 31.232 31.232v542.72l150.016-150.016c12.288-12.288 32.256-12.288 44.032 0 12.288 12.288 12.288 32.256 0 44.032l-201.216 202.752z m0 0"  horiz-adv-x="1024" />

    
    <glyph glyph-name="lianxikefu" unicode="&#58887;" d="M505.050185 755.532262c-157.428925 0-284.985909-124.962176-284.985908-279.163412 0-154.201236 127.556984-279.163412 284.985908-279.163411 157.365637 0 284.954265 124.962176 284.954265 279.163411 0.031644 154.201236-127.588628 279.163412-284.954265 279.163412zM175.984178 369.190606V626.931026c-3.607417 0-7.183189-0.126576-10.695674-0.411372 58.383189 126.860816 188.440049 215.210878 339.793325 215.210878 151.321632 0 281.410136-88.350062 339.82497-215.210878a134.107293 134.107293 0 0 1-10.758962 0.411372v-257.74042c72.686279 0 131.639061 57.718665 131.63906 128.886032 0 48.35204-27.1822 90.406922-67.370086 112.494437C841.805686 770.120148 687.28801 884.671446 505.081829 884.671446 322.844005 884.639802 168.357973 770.088504 111.778492 610.571075 71.558962 588.515204 44.345117 546.397033 44.345117 498.044994c0-71.167367 58.921137-128.854388 131.639061-128.854388zM789.403214 221.413103a420.358962 420.358962 0 0 0-284.353029-109.773054 420.232386 420.232386 0 0 0-283.9733 109.393326c-133.157973-67.116934-220.653646-186.636341-220.653646-349.001731h1012.608158c0.031644 162.650185-89.014586 282.296168-223.628183 349.381459z"  horiz-adv-x="1047" />

    
    <glyph glyph-name="pc" unicode="&#59041;" d="M896.104 767.879h-768c-34.62 0.655-63.242-26.823-64-61.44v-491.541c0.771-34.612 29.385-62.083 64-61.44h320v-92.16h-160c-17.315 0.357-31.643-13.391-32-30.707v-30.733h512v30.677c-0.349 17.316-14.672 31.07-31.987 30.72H576.104v92.16h320c34.633-0.714 63.286 26.782 64 61.414v491.61c-0.688 34.621-29.31 62.129-63.932 61.441l-0.068-0.001z m-416-552.982c-0.682 17.66 13.078 32.53 30.74 33.213 17.659 0.683 32.529-13.079 33.214-30.739 0.682-17.66-13.081-32.53-30.74-33.213-0.404-0.016-0.81-0.024-1.214-0.024-17.315-0.357-31.643 13.392-32 30.708v0.055z m-352 61.44V706.439h768v-430.08h-768v-0.022z"  horiz-adv-x="1024" />

    
    <glyph glyph-name="icon_user-defined" unicode="&#58899;" d="M888.832 530.432c-16.384 113.664-115.712 191.488-220.16 191.488-31.744 0-64.512-7.168-96.256-23.552-21.504-11.264-40.96-26.624-63.488-40.96 0 0-1.024 1.024-3.072 2.048-43.008 40.96-97.28 61.44-152.576 61.44-37.888 0-75.776-10.24-110.592-30.72-79.872-47.104-122.88-139.264-107.52-231.424 9.216-53.248 34.816-96.256 71.68-134.144 69.632-70.656 190.464-193.536 257.024-260.096 13.312-13.312 30.72-19.456 47.104-19.456 17.408 0 33.792 6.144 47.104 19.456 68.608 68.608 193.536 195.584 266.24 271.36 52.224 54.272 74.752 119.808 64.512 194.56zM786.432 375.808c-83.968-88.064-235.52-240.64-265.216-270.336-3.072-3.072-6.144-4.096-9.216-4.096-2.048 0-6.144 1.024-9.216 4.096-66.56 67.584-187.392 189.44-257.024 260.096-31.744 31.744-50.176 65.536-56.32 104.448-12.288 68.608 20.48 138.24 80.896 173.056 25.6 15.36 54.272 22.528 83.968 22.528 41.984 0 82.944-16.384 114.688-47.104 14.336-13.312 27.648-17.408 39.936-17.408 15.36 0 26.624 7.168 29.696 9.216l21.504 15.36c12.288 9.216 24.576 17.408 35.84 23.552 22.528 11.264 46.080 17.408 71.68 17.408 82.944 0 154.624-61.44 165.888-143.36 8.192-57.344-7.168-105.472-47.104-147.456z"  horiz-adv-x="1024" />

    
    <glyph glyph-name="pingjia" unicode="&#58895;" d="M972.8 844.8H51.2a51.2 51.2 0 0 1-51.2-51.2v-614.4a51.2 51.2 0 0 1 51.2-51.2h128v-204.8l332.8 204.8h460.8a51.2 51.2 0 0 1 51.2 51.2V793.6a51.2 51.2 0 0 1-51.2 51.2z m0-665.6H497.536l-12.3392-7.6032L230.4 14.8224V179.2H51.2V793.6h921.6v-614.4zM230.4 665.6h563.2v-51.2H230.4zM230.4 512h563.2v-51.2H230.4zM230.4 358.4h563.2v-51.2H230.4z"  horiz-adv-x="1024" />

    
    <glyph glyph-name="youhuiquan" unicode="&#58884;" d="M301.232146 359.832357c-7.181655 0-14.384986-2.622677-19.63034-7.875255-5.238129-5.873929-8.518281-13.070035-8.518281-20.287815 0-7.196105 2.629902-14.392211 8.518281-19.63034l172.814902-172.829351c5.238129-5.238129 12.427009-7.853581 19.630339-7.853581 7.196105 0 14.399436 2.615452 20.287815 7.853581a30.467847 30.467847 0 0 1 7.853581 20.287815c0 7.21778-2.615452 14.413886-7.853581 19.652014l-172.807677 172.822127c-5.223679 5.230904-12.434234 7.860806-20.295039 7.860805zM553.919481 211.242898c7.18888 0 14.384986 2.615452 20.287815 7.853581a30.395597 30.395597 0 0 1 7.85358 20.287815c0 7.18888-2.615452 14.406661-7.85358 19.644789l-172.822127 172.800452c-5.238129 5.238129-12.434234 8.511056-19.637564 8.511056s-15.049686-3.280152-20.287815-8.511056c-5.245354-5.259804-8.511056-13.09171-8.511056-20.30949 0-7.196105 3.258477-14.406661 8.511056-19.623114L534.260241 219.089254c5.252579-5.230904 12.455909-7.846356 19.65924-7.846356zM989.19715 456.033303l-32.722049 156.457489a26.205094 26.205094 0 0 1-12.434235 18.329839c-5.895604 3.937628-13.734735 5.895604-21.602765 3.937628-7.181655-1.307726-13.749185-5.895604-18.337064-12.455909-3.915953-5.881154-5.238129-13.734735-3.915953-21.588316 13.09171-64.801072 26.190644-129.60937 39.275129-194.417668l-4.580653-4.573428-198.983871-198.991096-240.888901-240.888901-390.800537 390.793311 444.482326 444.446201 291.666238-58.681493-113.634883-114.133409 0.252875-0.2601c-37.996303 20.64184-86.360488 15.078586-118.728512-16.754787-38.617653-39.282354-38.617653-102.118225 0-141.386129 39.282354-38.610428 102.111-38.610428 141.378904 0 31.833373 32.375249 37.403852 80.746659 16.762012 118.735737l0.260101-0.2601 151.197685 151.876836c5.895604 5.238129 8.518281 12.434234 8.518281 19.637564a28.199196 28.199196 0 0 1-10.367882 21.942341c-0.195075 0.166175-0.4046 0.310675-0.599676 0.469626a34.853426 34.853426 0 0 1-1.538926 1.112651l-0.455175 0.30345a33.220574 33.220574 0 0 1-10.613533 4.320553L598.411063 846.841064c-64.143597 13.09171-75.942031 3.923178-106.034177-26.183419L44.636083 372.259366C38.740478 367.028463 36.125026 359.832357 36.125026 352.629027c0-7.210555 2.615452-14.406661 8.511057-19.644789l430.061215-430.725916c5.888379-5.873929 13.09171-8.518281 20.29504-8.518281s14.399436 3.280152 19.630339 8.518281l260.562591 260.555366 187.835687 187.170987c29.449122 30.128272 39.275129 41.919481 26.176195 106.048628z m-274.925902 45.163508c-19.630339-18.965639-51.044662-18.965639-70.689452 0a49.794736 49.794736 0 0 0 0 70.703902 49.787511 49.787511 0 0 0 70.689452 0 49.794736 49.794736 0 0 0 0-70.703902z"  horiz-adv-x="1024" />

    
    <glyph glyph-name="weixin" unicode="&#58885;" d="M515.05152 891.904C235.12576 891.904 8.18688 664.98048 8.18688 385.04448c0-279.94624 226.93888-506.88512 506.87488-506.88512 279.94112 0 506.89024 226.93888 506.89024 506.88512C1021.94688 664.98048 794.99776 891.904 515.05152 891.904zM582.48704 385.48992c-11.63776 0-23.30624-11.73504-23.30624-26.15296 0-11.72992 11.66336-23.4496 23.30624-23.4496 17.48992 0 29.97248 11.71968 29.97248 23.4496 0 14.41792-12.48256 26.15296-29.97248 26.15296zM505.9072 507.22816c18.31424 0 29.96736 12.62592 29.96736 31.5648 0 19.84-11.65312 31.5648-29.96736 31.5648-17.47456 0-34.1248-11.72992-34.1248-31.5648 0-18.93888 16.65024-31.5648 34.1248-31.5648z m-87.40352-262.43072c-30.7968 0-53.26848 5.41184-82.40128 14.41792l-84.0704-45.98784 24.13568 77.568c-59.10528 45.09184-94.06464 101.89824-94.06464 171.3408 0 122.65472 106.5472 216.44288 236.40064 216.44288 114.87744 0 217.25696-73.94816 237.2352-178.56512-8.32 1.80224-15.81568 2.70336-22.46656 2.70336-113.22368 0-200.61696-91.98592-200.61696-202.90048 0-18.94912 2.49856-36.09088 6.66624-54.1184-6.66112-0.90112-14.15168-0.90112-20.81792-0.90112z m347.12064-88.38144l16.65024-64.94208-63.26272 38.77888c-24.1408-5.4016-47.45216-13.52192-71.58784-13.52192-111.54432 0-199.77728 82.95936-199.77728 185.7792 0 102.79424 88.23296 185.77408 199.77728 185.77408 105.71264 0 200.61696-82.97984 200.61696-185.77408-0.00512-57.71264-35.80928-109.12256-82.41664-146.09408zM341.0944 570.35776c-17.47968 0-35.79904-11.72992-35.79904-31.5648 0-18.93888 18.31936-31.56992 35.79904-31.56992 16.65024 0 29.96736 12.62592 29.96736 31.56992 0 19.84-13.32224 31.5648-29.96736 31.5648z m372.09088-184.86784c-12.48768 0-23.31648-11.73504-23.31648-26.15296 0-11.72992 10.82368-23.4496 23.31648-23.4496 16.64 0 29.12768 11.71968 29.12768 23.4496 0 14.41792-12.48768 26.15296-29.12768 26.15296z"  horiz-adv-x="1024" />

    
    <glyph glyph-name="shandian" unicode="&#58915;" d="M512-128a512 512 0 1 0 512 512 512 512 0 0 0-512-512z m128 896L320 384h160l-96-384 320 384h-160z"  horiz-adv-x="1024" />

    
    <glyph glyph-name="dianzan" unicode="&#59557;" d="M512 896c282.773333 0 512-229.226667 512-512S794.773333-128 512-128 0 101.226667 0 384 229.226667 896 512 896z m-21.184-405.269333c-13.610667-12.970667-33.322667-21.994667-47.637333-27.221334V213.333333h210.858666c3.328 0 6.613333 0.981333 9.28 2.837334 27.242667 18.709333 72.746667 126.805333 76.032 180.714666 1.194667 19.392-2.688 32.661333-11.84 40.597334-26.88 23.168-60.266667 22.186667-95.445333 21.141333l-12.010667-0.298667c9.749333 33.642667 9.749333 52.693333 9.749334 65.92 0 27.2-15.36 56.832-39.125334 75.477334-17.194667 13.461333-34.133333 13.184-44.672 10.069333-18.922667-5.610667-22.784-19.434667-27.072-44.053333-4.245333-24.405333-10.112-57.856-28.117333-75.008z m-78.464-33.024c-13.866667-0.085333-35.84 0.149333-55.253333 0.618666-3.989333-0.213333-8.149333-1.344-11.093334-3.989333a13.44 13.44 0 0 1-4.672-10.069333v-216.874667c0-7.765333 6.912-14.058667 15.424-14.058667h55.594667V457.706667z"  horiz-adv-x="1024" />

    
    <glyph glyph-name="fanhui1" unicode="&#58988;" d="M301.568 17.408l338.432-1.024c129.536 0 250.368 142.848 250.368 293.888 0 145.92-121.856 290.816-251.392 290.816h-379.392l1.536-156.672-210.432 198.144 210.432 190.976v-149.504h377.856c185.856 0 333.824-188.416 333.824-375.296s-147.968-375.296-333.824-375.296h-337.408v83.968z"  horiz-adv-x="1024" />

    
    <glyph glyph-name="shouye" unicode="&#59044;" d="M418.855806 857.870184L12.676281 451.287028s-14.379376-13.193708-6.508559-34.35914c0 0 4.33904-16.548896 31.533719-16.548896h114.707055v-420.306631s-0.782036-98.940196 105.24694-107.99668h88.698044s73.309589-2.371336 73.30959 92.229821v191.952053s-0.403632 14.581192 14.202786 14.581191h157.264963s13.395524-0.403632 13.395524-14.984823v-196.291093s-2.74974-78.430665 67.810108-87.512376h97.350897s100.9079 0 102.875604 115.110687l0.403632 413.217851h118.541555s24.924251 0 27.699219 20.383396c0 0 5.121076 20.887935-9.460116 31.93735L594.662595 866.270767S558.789837 899.26765 505.460012 895.710647c-51.412575-3.405642-86.604205-37.840463-86.604206-37.840463z"  horiz-adv-x="1024" />

    
    <glyph glyph-name="cart" unicode="&#58888;" d="M332.8 105.47199999999998q19.456 0 36.864-7.168t30.208-19.968 20.48-30.208 7.68-36.864-7.68-36.864-20.48-30.208-30.208-20.48-36.864-7.68q-20.48 0-37.888 7.68t-30.208 20.48-20.48 30.208-7.68 36.864 7.68 36.864 20.48 30.208 30.208 19.968 37.888 7.168zM758.784 103.42399999999998q19.456 0 37.376-7.168t30.72-19.968 20.48-30.208 7.68-36.864-7.68-36.864-20.48-30.208-30.72-20.48-37.376-7.68-36.864 7.68-30.208 20.48-20.48 30.208-7.68 36.864 7.68 36.864 20.48 30.208 30.208 19.968 36.864 7.168zM930.816 685.056q28.672 0 44.544-7.68t22.528-18.944 6.144-24.064-3.584-22.016-13.312-37.888-22.016-62.976-23.552-68.096-18.944-53.248q-13.312-40.96-33.28-56.832t-49.664-15.872l-35.84 0-65.536 0-86.016 0-96.256 0-253.952 0 14.336-92.16 517.12 0q49.152 0 49.152-41.984 0-20.48-9.728-35.84t-38.4-14.336l-49.152 0-94.208 0-118.784 0-119.808 0-99.328 0-55.296 0q-20.48 0-34.304 9.216t-23.04 24.064-14.848 32.256-8.704 32.768q-1.024 6.144-5.632 29.696t-11.264 58.88-14.848 78.848-16.384 87.552q-19.456 103.424-44.032 230.4l-76.8 0q-15.36 0-25.6 7.68t-16.896 18.432-9.216 23.04-2.56 22.528q0 20.48 13.824 33.792t37.376 12.288l103.424 0q20.48 0 32.768-6.144t19.456-15.36 10.24-18.944 5.12-16.896q2.048-8.192 4.096-23.04t4.096-30.208q3.072-18.432 6.144-38.912l700.416 0zM892.928 593.9200000000001l-641.024 2.048 35.84-185.344 535.552-1.024z"  horiz-adv-x="1028" />

    
    <glyph glyph-name="biji" unicode="&#58931;" d="M872.96-76.8H113.92c-31.76064 0-57.6 25.83936-57.6 57.6V706.56c0 31.76064 25.83936 57.6 57.6 57.6h538.88v-38.4H113.92c-10.58688 0-19.2-8.61312-19.2-19.2v-725.76c0-10.58688 8.61312-19.2 19.2-19.2h759.04c10.58688 0 19.2 8.61312 19.2 19.2V528.64h38.4v-547.84c0-31.76064-25.83936-57.6-57.6-57.6zM652.8 764.16h12.8v-38.4h-12.8zM366.08 229.12l42.24 124.16 395.52 407.04 85.76-79.36-404.48-419.84zM881.2288 840.90496l92.25728-81.17376-52.42496-59.584-92.25728 81.17504z"  horiz-adv-x="1024" />

    
    <glyph glyph-name="sanjiaoxing02" unicode="&#58889;" d="M384.32003900000007 646.160815L639.679961 384 384.32003899999995 121.83918500000004Z"  horiz-adv-x="1024" />

    
    <glyph glyph-name="arrow-up01" unicode="&#58890;" d="M275.993 267.9936666666666l236.018 235.966 235.993-235.966h-472.014z"  horiz-adv-x="1024" />

    
    <glyph glyph-name="QQcaise" unicode="&#58892;" d="M512.024-63.851c-79.857 0-153.157 26.727-200.35 66.647-23.967-7.161-54.625-18.685-73.972-32.971-16.554-12.222-14.49-24.686-11.506-29.718 13.099-22.101 224.729-14.11 285.827-7.228v3.27z m0 0c79.855 0 153.156 26.727 200.35 66.647 23.966-7.161 54.624-18.685 73.971-32.971 16.554-12.222 14.488-24.686 11.506-29.718-13.099-22.101-224.729-14.11-285.826-7.228v3.27zM512.487 414.75c131.87 0.896 237.557 26.416 273.366 36.209 8.537 2.335 13.104 6.52 13.104 6.52 0.03 1.2 0.544 21.467 0.544 31.922 0 176.06-83.115 352.965-287.502 352.977-204.386-0.012-287.502-176.919-287.502-352.977 0-10.455 0.515-30.721 0.546-31.921 0 0 3.716-3.916 10.524-5.81 33.063-9.2 140.735-36.004 275.949-36.92h0.971z m358.35-146.671c-8.176 26.308-19.335 56.987-30.633 86.449 0 0-6.5 0.802-9.786-0.15-101.391-29.451-224.282-48.224-317.932-47.091h-0.969c-93.126-1.122-215.184 17.435-316.235 46.598-3.862 1.115-11.486 0.643-11.486 0.643-11.3-29.462-22.456-60.14-30.63-86.45-38.981-125.444-26.352-177.358-16.737-178.522 20.636-2.495 80.322 94.435 80.322 94.435 0-98.494 88.923-249.724 292.547-251.116 0.908 0.008 4.496 0.008 5.404 0 203.626 1.392 292.547 152.621 292.547 251.116 0 0 59.687-96.93 80.324-94.435 9.615 1.164 22.241 53.078-16.736 178.523M439.272 582.273c-27.723-1.25-51.417 30.334-52.903 70.485-1.509 40.18 19.732 73.761 47.46 75.018 27.698 1.234 51.375-30.336 52.881-70.504 1.518-40.178-19.727-73.754-47.438-75M637.63 652.76c-1.486-40.151-25.18-71.734-52.903-70.486-27.71 1.247-48.956 34.82-47.438 74.999 1.503 40.17 25.18 71.74 52.878 70.504 27.732-1.257 48.972-34.839 47.463-75.017M686.905 525.566c-7.411 16.415-82.03 34.702-174.41 34.702h-0.991c-92.38 0-167.002-18.287-174.41-34.702a5.44 5.44 0 0 1-0.54-2.335c0-1.182 0.397-2.25 1.017-3.156 6.245-9.103 89.106-54.083 173.934-54.083h0.991c84.828 0 167.69 44.978 173.934 54.081 0.62 0.904 1.016 1.982 1.016 3.165a5.424 5.424 0 0 1-0.541 2.328M473.353 652.174c1.27-15.865-7.431-29.959-19.406-31.499-11.993-1.542-22.733 10.07-24.009 25.942-1.251 15.873 7.435 29.966 19.39 31.495 12.013 1.546 22.771-10.074 24.025-25.938m76.18-5.305c2.446 4.39 19.139 27.475 53.689 19.07 9.075-2.208 13.274-5.456 14.16-6.735 1.308-1.888 1.666-4.574 0.34-8.193-2.628-7.17-8.048-6.975-11.056-5.572-1.94 0.906-26.005 16.941-48.171-6.986-1.526-1.647-4.255-2.211-6.84-0.259-2.587 1.957-3.655 5.921-2.122 8.675M512.485 313.056h-0.969c-63.689-0.766-140.913 7.67-215.695 22.409-6.403-37.07-10.27-83.662-6.949-139.227 8.386-140.446 91.794-228.722 220.536-230.008h5.233c128.742 1.285 212.15 89.562 220.536 230.008 3.322 55.57-0.547 102.163-6.952 139.234-74.796-14.744-152.033-23.186-215.74-22.416M331.067 324.805V186.6s63.318-12.773 126.751-3.931V310.152c-40.185 2.275-83.526 7.343-126.75 14.653M798.957 457.48s-123.153-38.878-286.47-39.986h-0.972c-163.05 1.103-286.052 39.852-286.473 39.986l-41.246-102.953c103.169-31.103 231.037-51.15 327.719-49.986l0.969 0.002c96.686-1.17 224.539 18.876 327.719 49.983L798.957 457.48z"  horiz-adv-x="1024" />

    


  </font>
</defs>
</svg>
